<?xml version="1.0" standalone="no"?>
<!DOCTYPE svg PUBLIC "-//W3C//DTD SVG 20010904//EN"
 "http://www.w3.org/TR/2001/REC-SVG-20010904/DTD/svg10.dtd">
<svg version="1.0" xmlns="http://www.w3.org/2000/svg"
 width="170.000000pt" height="170.000000pt" viewBox="0 0 170.000000 170.000000"
 preserveAspectRatio="xMidYMid meet">
<metadata>
Created by potrace 1.11, written by Peter Selinger 2001-2013
</metadata>
<g transform="translate(0.000000,170.000000) scale(0.100000,-0.100000)"
fill="#000000" stroke="none">
<path d="M830 1690 c-674 -5 -696 -6 -729 -25 -19 -11 -45 -40 -58 -64 l-23
-44 0 -716 c0 -805 -4 -758 75 -810 l40 -26 783 3 782 3 0 32 0 32 -460 0
c-399 0 -462 2 -470 15 -7 10 -8 284 -3 758 l6 742 -64 2 -64 2 60 3 c33 2 62
8 65 13 4 6 198 10 468 10 l462 1 0 40 0 39 -87 -2 c-49 -2 -401 -5 -783 -8z
m-738 -836 c-3 -470 -1 -669 7 -677 15 -15 14 -27 -4 -27 -13 0 -15 82 -15
678 0 568 3 692 14 692 1 0 -1 -300 -2 -666z m348 526 c0 -5 -7 -10 -15 -10
-8 0 -15 5 -15 10 0 6 7 10 15 10 8 0 15 -4 15 -10z m-118 -32 c-9 -9 -15 -9
-24 0 -9 9 -7 12 12 12 19 0 21 -3 12 -12z m232 -3 c-4 -8 -10 -15 -14 -15 -4
0 -10 7 -14 15 -4 10 1 15 14 15 13 0 18 -5 14 -15z m-314 -78 c0 -8 -7 -14
-15 -14 -16 0 -19 9 -8 20 11 11 23 8 23 -6z m400 -3 c0 -9 -5 -14 -12 -12
-18 6 -21 28 -4 28 9 0 16 -7 16 -16z m-430 -115 c0 -5 -7 -9 -15 -9 -15 0
-20 12 -9 23 8 8 24 -1 24 -14z m460 0 c0 -5 -7 -9 -15 -9 -15 0 -20 12 -9 23
8 8 24 -1 24 -14z m-430 -113 c0 -7 -7 -13 -15 -13 -15 0 -20 18 -9 30 9 9 24
-2 24 -17z m400 -1 c0 -9 -6 -12 -15 -9 -8 4 -15 10 -15 15 0 5 7 9 15 9 8 0
15 -7 15 -15z m-320 -80 c0 -8 -4 -15 -9 -15 -13 0 -22 16 -14 24 11 11 23 6
23 -9z m230 0 c0 -8 -4 -15 -9 -15 -13 0 -22 16 -14 24 11 11 23 6 23 -9z
m-110 -24 c0 -12 -20 -25 -27 -18 -7 7 6 27 18 27 5 0 9 -4 9 -9z m45 -271
c41 -16 57 -67 51 -169 -4 -77 -8 -88 -31 -108 -23 -20 -37 -23 -111 -23 l-84
0 0 155 0 155 74 0 c41 0 86 -4 101 -10z m829 -610 c123 0 147 -2 137 -13 -9
-11 -61 -14 -258 -12 -236 2 -331 11 -258 25 17 4 75 5 130 3 55 -1 167 -3
249 -3z m192 -9 c-4 -5 0 -12 6 -14 7 -3 3 -6 -8 -6 -12 -1 -24 6 -28 14 -4
10 1 15 15 15 11 0 18 -4 15 -9z"/>
<path d="M360 515 l0 -105 43 0 c67 1 77 14 77 107 0 48 -5 84 -12 91 -7 7
-34 12 -60 12 l-48 0 0 -105z"/>
<path d="M991 1442 c-71 -1 -130 -7 -138 -14 -19 -15 -19 -1116 0 -1142 12
-16 32 -17 237 -14 209 3 228 5 275 26 40 18 47 25 35 33 -12 8 -10 9 7 4 18
-5 33 4 71 42 73 74 96 129 96 238 1 83 -2 96 -32 157 -22 44 -48 80 -77 104
-25 20 -45 45 -45 55 0 11 18 38 40 61 121 129 81 347 -78 425 -61 30 -94 32
-391 25z m202 -172 c51 0 61 -4 94 -34 34 -31 37 -39 41 -100 4 -64 3 -67 -30
-100 -19 -19 -52 -39 -73 -45 -45 -12 -154 -15 -171 -3 -6 4 -14 59 -18 130
-7 111 -5 126 11 144 14 15 26 19 53 14 19 -3 61 -6 93 -6z m123 -451 c40 -24
55 -59 61 -144 7 -86 -10 -131 -63 -171 -36 -28 -40 -29 -158 -29 l-121 0 -3
175 c-2 152 0 176 14 187 26 19 231 5 270 -18z m-9 -525 c-3 -3 -12 -4 -19 -1
-8 3 -5 6 6 6 11 1 17 -2 13 -5z m-80 -10 c-3 -3 -12 -4 -19 -1 -8 3 -5 6 6 6
11 1 17 -2 13 -5z"/>
</g>
</svg>
